# Made in Blockbench 4.2.5
mtllib mindeca_trap_oak_leaves.mtl

o converted_out
v 0.5 -0.5 -0.5
v 0.5 -0.5 0.5
v 0.5 -0.4375 0.5
v 0.5 -0.4375 -0.5
v -0.5 -0.5 -0.5
v -0.5 -0.5 0.5
v -0.5 -0.4375 0.5
v -0.5 -0.4375 -0.5
v 0.1875 -0.375 -0.1875
v 0.1875 -0.375 0.1875
v 0.1875 -0.3125 0.1875
v 0.1875 -0.3125 -0.1875
v -0.1875 -0.375 -0.1875
v -0.1875 -0.375 0.1875
v -0.1875 -0.3125 0.1875
v -0.1875 -0.3125 -0.1875
v 0.3125 -0.4375 -0.3125
v 0.3125 -0.4375 0.3125
v 0.3125 -0.375 0.3125
v 0.3125 -0.375 -0.3125
v -0.3125 -0.4375 -0.3125
v -0.3125 -0.4375 0.3125
v -0.3125 -0.375 0.3125
v -0.3125 -0.375 -0.3125
vt 0 0.9375
vt 1 0.9375
vt 1 1
vt 0 1
vt 0 0.9375
vt 1 0.9375
vt 1 1
vt 0 1
vt 1 0.9375
vt 1 1
vt 0 1
vt 0 0.9375
vt 1 0.9375
vt 1 1
vt 0 1
vt 0 0.9375
vt 1 0
vt 1 1
vt 0 1
vt 0 0
vt 1 0
vt 1 1
vt 0 1
vt 0 0
vt 0 0.9375
vt 0.375 0.9375
vt 0.375 1
vt 0 1
vt 0 0.9375
vt 0.375 0.9375
vt 0.375 1
vt 0 1
vt 0.375 0.9375
vt 0.375 1
vt 0 1
vt 0 0.9375
vt 0.375 0.9375
vt 0.375 1
vt 0 1
vt 0 0.9375
vt 0 1
vt 0 1
vt 0 1
vt 0 1
vt 0.6875 0.3125
vt 0.6875 0.6875
vt 0.3125 0.6875
vt 0.3125 0.3125
vt 0 0.9375
vt 0.625 0.9375
vt 0.625 1
vt 0 1
vt 0 0.9375
vt 0.625 0.9375
vt 0.625 1
vt 0 1
vt 0.625 0.9375
vt 0.625 1
vt 0 1
vt 0 0.9375
vt 0.625 0.9375
vt 0.625 1
vt 0 1
vt 0 0.9375
vt 0 1
vt 0 1
vt 0 1
vt 0 1
vt 0.625 0.375
vt 0.625 1
vt 0 1
vt 0 0.375
vn -1 0 0
vn -1 0 0
vn 0 0 1
vn 0 0 1
vn 0 -1 0
vn 0 -1 0
vn -1 0 0
vn -1 0 0
vn 0 0 1
vn 0 0 1
vn 0 -1 0
vn 0 -1 0
vn -1 0 0
vn -1 0 0
vn 0 0 1
vn 0 0 1
vn 0 -1 0
vn 0 -1 0
usemtl m_0
f 1/1/1 2/2/1 3/3/1 4/4/1
f 5/5/2 6/6/2 7/7/2 8/8/2
f 1/9/3 4/10/3 8/11/3 5/12/3
f 2/13/4 3/14/4 7/15/4 6/16/4
f 1/17/5 2/18/5 6/19/5 5/20/5
f 4/21/6 3/22/6 7/23/6 8/24/6
f 9/25/7 10/26/7 11/27/7 12/28/7
f 13/29/8 14/30/8 15/31/8 16/32/8
f 9/33/9 12/34/9 16/35/9 13/36/9
f 10/37/10 11/38/10 15/39/10 14/40/10
f 9/41/11 10/42/11 14/43/11 13/44/11
f 12/45/12 11/46/12 15/47/12 16/48/12
f 17/49/13 18/50/13 19/51/13 20/52/13
f 21/53/14 22/54/14 23/55/14 24/56/14
f 17/57/15 20/58/15 24/59/15 21/60/15
f 18/61/16 19/62/16 23/63/16 22/64/16
f 17/65/17 18/66/17 22/67/17 21/68/17
f 20/69/18 19/70/18 23/71/18 24/72/18