# Made in Blockbench 4.3.1
mtllib cicada.mtl

o converted_out
v -0.3125 0.1875 0.3125
v 0.1875 -0.25 0.375
v 0.1875 -0.25 0.5
v 0.1875 0.375 0.5
v 0.1875 0.375 0.375
v -0.1875 -0.25 0.375
v -0.1875 -0.25 0.5
v -0.1875 0.375 0.5
v -0.1875 0.375 0.375
v 0.0625 -0.375 0.4375
v 0.0625 -0.375 0.5
v 0.0625 0.375 0.5
v 0.0625 0.375 0.4375
v -0.0625 -0.375 0.4375
v -0.0625 -0.375 0.5
v -0.0625 0.375 0.5
v -0.0625 0.375 0.4375
v 0.25 -0.125 0.3125
v 0.25 -0.125 0.5
v 0.25 0.25 0.5
v 0.25 0.25 0.3125
v -0.25 -0.125 0.3125
v -0.25 -0.125 0.5
v -0.25 0.25 0.5
v -0.25 0.25 0.3125
v 0.25 0.25 0.3125
v 0.25 0.25 0.5
v 0.25 0.375 0.5
v 0.25 0.375 0.3125
v 0.125 0.25 0.3125
v 0.125 0.25 0.5
v 0.125 0.375 0.5
v 0.125 0.375 0.3125
v -0.125 0.25 0.3125
v -0.125 0.25 0.5
v -0.125 0.375 0.5
v -0.125 0.375 0.3125
v -0.25 0.25 0.3125
v -0.25 0.25 0.5
v -0.25 0.375 0.5
v -0.25 0.375 0.3125
v 0.1875 0.3125 0.46875
v 0.1875 0.3125 0.5
v 0.1875 0.5 0.5
v 0.1875 0.5 0.46875
v 0.125 0.3125 0.46875
v 0.125 0.3125 0.5
v 0.125 0.5 0.5
v 0.125 0.5 0.46875
v -0.125 0.3125 0.46875
v -0.125 0.3125 0.5
v -0.125 0.5 0.5
v -0.125 0.5 0.46875
v -0.1875 0.3125 0.46875
v -0.1875 0.3125 0.5
v -0.1875 0.5 0.5
v -0.1875 0.5 0.46875
v 0.3125 -0.5 0.28125
v 0.3125 -0.5 0.3125
v 0.3125 0.1875 0.3125
v 0.3125 0.1875 0.28125
v 0.0625 -0.5 0.28125
v 0.0625 -0.5 0.3125
v 0.0625 0.1875 0.3125
v 0.0625 0.1875 0.28125
v -0.0625 -0.5 0.28125
v -0.0625 -0.5 0.3125
v -0.0625 0.1875 0.3125
v -0.0625 0.1875 0.28125
v -0.3125 -0.5 0.28125
v -0.3125 -0.5 0.3125
v -0.3125 0.1875 0.28125
vt 0.9375 0.368421052631579
vt 0.875 0.368421052631579
vt 0.875 0.8947368421052632
vt 0.9375 0.8947368421052632
vt 0.8125 0.368421052631579
vt 0.875 0.368421052631579
vt 0.875 0.8947368421052632
vt 0.8125 0.8947368421052632
vt 0.03125 0.368421052631579
vt 0.03125 0.8947368421052632
vt 0.21875 0.8947368421052632
vt 0.21875 0.368421052631579
vt 0.28125 0.368421052631579
vt 0.28125 0.8947368421052632
vt 0.46875 0.8947368421052632
vt 0.46875 0.368421052631579
vt 0.53125 0.10526315789473684
vt 0.53125 0
vt 0.71875 0
vt 0.71875 0.10526315789473684
vt 0.96875 0.10526315789473684
vt 0.96875 0
vt 0.78125 0
vt 0.78125 0.10526315789473684
vt 0.90625 0.26315789473684215
vt 0.875 0.26315789473684215
vt 0.875 0.8947368421052632
vt 0.90625 0.8947368421052632
vt 0.875 0.26315789473684215
vt 0.84375 0.26315789473684215
vt 0.84375 0.8947368421052632
vt 0.875 0.8947368421052632
vt 0.09375 0.26315789473684215
vt 0.09375 0.8947368421052632
vt 0.15625 0.8947368421052632
vt 0.15625 0.26315789473684215
vt 0.34375 0.26315789473684215
vt 0.34375 0.8947368421052632
vt 0.40625 0.8947368421052632
vt 0.40625 0.26315789473684215
vt 0.59375 0.052631578947368474
vt 0.59375 0
vt 0.65625 0
vt 0.65625 0.052631578947368474
vt 0.90625 0.052631578947368474
vt 0.90625 0
vt 0.84375 0
vt 0.84375 0.052631578947368474
vt 0.96875 0.4736842105263158
vt 0.875 0.4736842105263158
vt 0.875 0.7894736842105263
vt 0.96875 0.7894736842105263
vt 0.78125 0.4736842105263158
vt 0.875 0.4736842105263158
vt 0.875 0.7894736842105263
vt 0.78125 0.7894736842105263
vt 0 0.4736842105263158
vt 0 0.7894736842105263
vt 0.25 0.7894736842105263
vt 0.25 0.4736842105263158
vt 0.5 0.4736842105263158
vt 0.5 0.7894736842105263
vt 0.25 0.7894736842105263
vt 0.25 0.4736842105263158
vt 0.5 0.1578947368421053
vt 0.5 0
vt 0.75 0
vt 0.75 0.1578947368421053
vt 1 0.1578947368421053
vt 1 0
vt 0.75 0
vt 0.75 0.1578947368421053
vt 0.96875 0.7894736842105263
vt 0.875 0.7894736842105263
vt 0.875 0.8947368421052632
vt 0.96875 0.8947368421052632
vt 0.78125 0.7894736842105263
vt 0.875 0.7894736842105263
vt 0.875 0.8947368421052632
vt 0.78125 0.8947368421052632
vt 0 0.7894736842105263
vt 0 0.8947368421052632
vt 0.0625 0.8947368421052632
vt 0.0625 0.7894736842105263
vt 0.5 0.7894736842105263
vt 0.5 0.8947368421052632
vt 0.4375 0.8947368421052632
vt 0.4375 0.7894736842105263
vt 0 1
vt 0 1
vt 0 1
vt 0 1
vt 1 0.1578947368421053
vt 1 0
vt 0.9375 0
vt 0.9375 0.1578947368421053
vt 0.96875 0.7894736842105263
vt 0.875 0.7894736842105263
vt 0.875 0.8947368421052632
vt 0.96875 0.8947368421052632
vt 0.78125 0.7894736842105263
vt 0.875 0.7894736842105263
vt 0.875 0.8947368421052632
vt 0.78125 0.8947368421052632
vt 0.1875 0.7894736842105263
vt 0.1875 0.8947368421052632
vt 0.25 0.8947368421052632
vt 0.25 0.7894736842105263
vt 0.3125 0.7894736842105263
vt 0.3125 0.8947368421052632
vt 0.25 0.8947368421052632
vt 0.25 0.7894736842105263
vt 0 1
vt 0 1
vt 0 1
vt 0 1
vt 0.8125 0.1578947368421053
vt 0.8125 0
vt 0.75 0
vt 0.75 0.1578947368421053
vt 0 1
vt 0 1
vt 0 1
vt 0 1
vt 0 1
vt 0 1
vt 0 1
vt 0 1
vt 0 1
vt 0 1
vt 0 1
vt 0 1
vt 0.03125 0.8421052631578947
vt 0.03125 1
vt 0.0625 1
vt 0.0625 0.8421052631578947
vt 0 1
vt 0 1
vt 0 1
vt 0 1
vt 0 1
vt 0 1
vt 0 1
vt 0 1
vt 0 1
vt 0 1
vt 0 1
vt 0 1
vt 0 1
vt 0 1
vt 0 1
vt 0 1
vt 0 1
vt 0 1
vt 0 1
vt 0 1
vt 0.1875 0.8421052631578947
vt 0.1875 1
vt 0.21875 1
vt 0.21875 0.8421052631578947
vt 0 1
vt 0 1
vt 0 1
vt 0 1
vt 0 1
vt 0 1
vt 0 1
vt 0 1
vt 1 0.1578947368421053
vt 0.96875 0.1578947368421053
vt 0.96875 0.736842105263158
vt 1 0.736842105263158
vt 0.75 0.1578947368421053
vt 0.78125 0.1578947368421053
vt 0.78125 0.736842105263158
vt 0.75 0.736842105263158
vt 0.5 0.42105263157894735
vt 0.5 1
vt 0.625 1
vt 0.625 0.42105263157894735
vt 0.5 0.42105263157894735
vt 0.5 1
vt 0.625 1
vt 0.625 0.42105263157894735
vt 0.5 0.3157894736842105
vt 0.5 0.26315789473684215
vt 0.625 0.26315789473684215
vt 0.625 0.3157894736842105
vt 0.625 0.21052631578947367
vt 0.625 0.1578947368421053
vt 0.5 0.1578947368421053
vt 0.5 0.21052631578947367
vt 1 0.1578947368421053
vt 0.96875 0.1578947368421053
vt 0.96875 0.736842105263158
vt 1 0.736842105263158
vt 0.75 0.1578947368421053
vt 0.78125 0.1578947368421053
vt 0.78125 0.736842105263158
vt 0.75 0.736842105263158
vt 0.625 0.42105263157894735
vt 0.625 1
vt 0.75 1
vt 0.75 0.42105263157894735
vt 0.625 0.42105263157894735
vt 0.625 1
vt 0.75 1
vt 0.75 0.42105263157894735
vt 0.625 0.3157894736842105
vt 0.625 0.26315789473684215
vt 0.75 0.26315789473684215
vt 0.75 0.3157894736842105
vt 0.75 0.21052631578947367
vt 0.75 0.1578947368421053
vt 0.625 0.1578947368421053
vt 0.625 0.21052631578947367
vn -1 0 0
vn -1 0 0
vn 0 0 1
vn 0 0 1
vn 0 -1 0
vn 0 -1 0
vn -1 0 0
vn -1 0 0
vn 0 0 1
vn 0 0 1
vn 0 -1 0
vn 0 -1 0
vn -1 0 0
vn -1 0 0
vn 0 0 1
vn 0 0 1
vn 0 -1 0
vn 0 -1 0
vn -1 0 0
vn -1 0 0
vn 0 0 1
vn 0 0 1
vn 0 -1 0
vn 0 -1 0
vn -1 0 0
vn -1 0 0
vn 0 0 1
vn 0 0 1
vn 0 -1 0
vn 0 -1 0
vn -1 0 0
vn -1 0 0
vn 0 0 1
vn 0 0 1
vn 0 -1 0
vn 0 -1 0
vn -1 0 0
vn -1 0 0
vn 0 0 1
vn 0 0 1
vn 0 -1 0
vn 0 -1 0
vn -1 0 0
vn -1 0 0
vn 0 0 1
vn 0 0 1
vn 0 -1 0
vn 0 -1 0
vn -1 0 0
vn -1 0 0
vn 0 0 1
vn 0 0 1
vn 0 -1 0
vn 0 -1 0
usemtl m_0
f 2/1/1 3/2/1 4/3/1 5/4/1
f 6/5/2 7/6/2 8/7/2 9/8/2
f 2/9/3 5/10/3 9/11/3 6/12/3
f 3/13/4 4/14/4 8/15/4 7/16/4
f 2/17/5 3/18/5 7/19/5 6/20/5
f 5/21/6 4/22/6 8/23/6 9/24/6
f 10/25/7 11/26/7 12/27/7 13/28/7
f 14/29/8 15/30/8 16/31/8 17/32/8
f 10/33/9 13/34/9 17/35/9 14/36/9
f 11/37/10 12/38/10 16/39/10 15/40/10
f 10/41/11 11/42/11 15/43/11 14/44/11
f 13/45/12 12/46/12 16/47/12 17/48/12
f 18/49/13 19/50/13 20/51/13 21/52/13
f 22/53/14 23/54/14 24/55/14 25/56/14
f 18/57/15 21/58/15 25/59/15 22/60/15
f 19/61/16 20/62/16 24/63/16 23/64/16
f 18/65/17 19/66/17 23/67/17 22/68/17
f 21/69/18 20/70/18 24/71/18 25/72/18
f 26/73/19 27/74/19 28/75/19 29/76/19
f 30/77/20 31/78/20 32/79/20 33/80/20
f 26/81/21 29/82/21 33/83/21 30/84/21
f 27/85/22 28/86/22 32/87/22 31/88/22
usemtl none
f 26/89/23 27/90/23 31/91/23 30/92/23
usemtl m_0
f 29/93/24 28/94/24 32/95/24 33/96/24
f 34/97/25 35/98/25 36/99/25 37/100/25
f 38/101/26 39/102/26 40/103/26 41/104/26
f 34/105/27 37/106/27 41/107/27 38/108/27
f 35/109/28 36/110/28 40/111/28 39/112/28
usemtl none
f 34/113/29 35/114/29 39/115/29 38/116/29
usemtl m_0
f 37/117/30 36/118/30 40/119/30 41/120/30
f 42/121/31 43/122/31 44/123/31 45/124/31
f 46/125/32 47/126/32 48/127/32 49/128/32
f 42/129/33 45/130/33 49/131/33 46/132/33
f 43/133/34 44/134/34 48/135/34 47/136/34
f 42/137/35 43/138/35 47/139/35 46/140/35
f 45/141/36 44/142/36 48/143/36 49/144/36
f 50/145/37 51/146/37 52/147/37 53/148/37
f 54/149/38 55/150/38 56/151/38 57/152/38
f 50/153/39 53/154/39 57/155/39 54/156/39
f 51/157/40 52/158/40 56/159/40 55/160/40
f 50/161/41 51/162/41 55/163/41 54/164/41
f 53/165/42 52/166/42 56/167/42 57/168/42
f 58/169/43 59/170/43 60/171/43 61/172/43
f 62/173/44 63/174/44 64/175/44 65/176/44
f 58/177/45 61/178/45 65/179/45 62/180/45
f 59/181/46 60/182/46 64/183/46 63/184/46
f 58/185/47 59/186/47 63/187/47 62/188/47
f 61/189/48 60/190/48 64/191/48 65/192/48
f 66/193/49 67/194/49 68/195/49 69/196/49
f 70/197/50 71/198/50 1/199/50 72/200/50
f 66/201/51 69/202/51 72/203/51 70/204/51
f 67/205/52 68/206/52 1/207/52 71/208/52
f 66/209/53 67/210/53 71/211/53 70/212/53
f 69/213/54 68/214/54 1/215/54 72/216/54