# Made in Blockbench 4.3.1
mtllib mindeca_pie4.mtl

o nodebox7
v 0 -0.1875 0
v 0 -0.1875 0.3125
v 0 -0.125 0.3125
v 0 -0.125 0
v -0.3125 -0.1875 0
v -0.3125 -0.1875 0.3125
v -0.3125 -0.125 0.3125
v -0.3125 -0.125 0
v 0.5 -0.5 -0.5
v 0.5 -0.5 0.5
v 0.5 -0.4375 0.5
v 0.5 -0.4375 -0.5
v -0.5 -0.5 -0.5
v -0.5 -0.5 0.5
v -0.5 -0.4375 0.5
v -0.5 -0.4375 -0.5
v 0.4375 -0.4375 -0.5
v 0.4375 -0.4375 -0.4375
v 0.4375 -0.25 -0.4375
v 0.4375 -0.25 -0.5
v -0.5 -0.4375 -0.5
v -0.5 -0.4375 -0.4375
v -0.5 -0.25 -0.4375
v -0.5 -0.25 -0.5
v -0.4375 -0.4375 -0.4375
v -0.4375 -0.4375 0.5
v -0.4375 -0.25 0.5
v -0.4375 -0.25 -0.4375
v -0.5 -0.4375 -0.4375
v -0.5 -0.4375 0.5
v -0.5 -0.25 0.5
v -0.5 -0.25 -0.4375
v 0.5 -0.4375 0.4375
v 0.5 -0.4375 0.5
v 0.5 -0.25 0.5
v 0.5 -0.25 0.4375
v -0.4375 -0.4375 0.4375
v -0.4375 -0.4375 0.5
v -0.4375 -0.25 0.5
v -0.4375 -0.25 0.4375
v 0.5 -0.4375 -0.5
v 0.5 -0.4375 0.4375
v 0.5 -0.25 0.4375
v 0.5 -0.25 -0.5
v 0.4375 -0.4375 -0.5
v 0.4375 -0.4375 0.4375
v 0.4375 -0.25 0.4375
v 0.4375 -0.25 -0.5
v 0 -0.4375 0
v 0 -0.4375 0.4375
v 0 -0.25 0.4375
v 0 -0.25 0
v -0.4375 -0.4375 0
v -0.4375 -0.4375 0.4375
v -0.4375 -0.25 0.4375
v -0.4375 -0.25 0
v 0 -0.25 0
v 0 -0.25 0.4375
v 0 -0.1875 0.4375
v 0 -0.1875 0
v -0.4375 -0.25 0
v -0.4375 -0.25 0.4375
v -0.4375 -0.1875 0.4375
v -0.4375 -0.1875 0
vt 0.75 0.18181818181818177
vt 0.59375 0.18181818181818177
vt 0.59375 0.2272727272727273
vt 0.75 0.2272727272727273
vt 0.25 0.045454545454545414
vt 0.40625 0.045454545454545414
vt 0.40625 0.09090909090909094
vt 0.25 0.09090909090909094
vt 0.75 0.18181818181818177
vt 0.75 0.2272727272727273
vt 0.90625 0.2272727272727273
vt 0.90625 0.18181818181818177
vt 0.25 0.045454545454545414
vt 0.25 0.09090909090909094
vt 0.09375 0.09090909090909094
vt 0.09375 0.045454545454545414
vt 0 1
vt 0 1
vt 0 1
vt 0 1
vt 0.25 0.6363636363636364
vt 0.25 0.40909090909090906
vt 0.09375 0.40909090909090906
vt 0.09375 0.6363636363636364
vt 0.5 0.09090909090909094
vt 0 0.09090909090909094
vt 0 0.13636363636363635
vt 0.5 0.13636363636363635
vt 0.5 0.09090909090909094
vt 0 0.09090909090909094
vt 0 0.13636363636363635
vt 0.5 0.13636363636363635
vt 0 0.09090909090909094
vt 0 0.13636363636363635
vt 0.5 0.13636363636363635
vt 0.5 0.09090909090909094
vt 0.5 0.09090909090909094
vt 0.5 0.13636363636363635
vt 0 0.13636363636363635
vt 0 0.09090909090909094
vt 1 0.2727272727272727
vt 1 1
vt 0.5 1
vt 0.5 0.2727272727272727
vt 1 1
vt 1 0.2727272727272727
vt 0.5 0.2727272727272727
vt 0.5 1
vt 0 1
vt 0 1
vt 0 1
vt 0 1
vt 0 0.13636363636363635
vt 0.03125 0.13636363636363635
vt 0.03125 0.2727272727272727
vt 0 0.2727272727272727
vt 0.03125 0.13636363636363635
vt 0.03125 0.2727272727272727
vt 0.5 0.2727272727272727
vt 0.5 0.13636363636363635
vt 0.46875 0.13636363636363635
vt 0.46875 0.2727272727272727
vt 0 0.2727272727272727
vt 0 0.13636363636363635
vt 0 1
vt 0 1
vt 0 1
vt 0 1
vt 0.46875 1
vt 0.46875 0.9545454545454546
vt 0 0.9545454545454546
vt 0 1
vt 0.46875 0.13636363636363635
vt 0 0.13636363636363635
vt 0 0.2727272727272727
vt 0.46875 0.2727272727272727
vt 0.03125 0.13636363636363635
vt 0.5 0.13636363636363635
vt 0.5 0.2727272727272727
vt 0.03125 0.2727272727272727
vt 0 1
vt 0 1
vt 0 1
vt 0 1
vt 0.03125 0.13636363636363635
vt 0.03125 0.2727272727272727
vt 0 0.2727272727272727
vt 0 0.13636363636363635
vt 0 1
vt 0 1
vt 0 1
vt 0 1
vt 0.03125 0.9545454545454546
vt 0.03125 0.2727272727272727
vt 0 0.2727272727272727
vt 0 0.9545454545454546
vt 0.03125 0.13636363636363635
vt 0 0.13636363636363635
vt 0 0.2727272727272727
vt 0.03125 0.2727272727272727
vt 0 1
vt 0 1
vt 0 1
vt 0 1
vt 0 0.13636363636363635
vt 0 0.2727272727272727
vt 0.46875 0.2727272727272727
vt 0.46875 0.13636363636363635
vt 0.5 0.13636363636363635
vt 0.5 0.2727272727272727
vt 0.03125 0.2727272727272727
vt 0.03125 0.13636363636363635
vt 0 1
vt 0 1
vt 0 1
vt 0 1
vt 0.5 0.31818181818181823
vt 0.5 0.2727272727272727
vt 0.03125 0.2727272727272727
vt 0.03125 0.31818181818181823
vt 0.5 0.13636363636363635
vt 0.03125 0.13636363636363635
vt 0.03125 0.2727272727272727
vt 0.5 0.2727272727272727
vt 0.46875 0.13636363636363635
vt 0 0.13636363636363635
vt 0 0.2727272727272727
vt 0.46875 0.2727272727272727
vt 0 0.13636363636363635
vt 0 0.2727272727272727
vt 0.03125 0.2727272727272727
vt 0.03125 0.13636363636363635
vt 0 1
vt 0 1
vt 0 1
vt 0 1
vt 0 1
vt 0 1
vt 0 1
vt 0 1
vt 0.5 1
vt 0.5 0.31818181818181823
vt 0.46875 0.31818181818181823
vt 0.46875 1
vt 0.75 0
vt 0.53125 0
vt 0.53125 0.13636363636363635
vt 0.75 0.13636363636363635
vt 0.53125 0
vt 0.96875 0
vt 0.96875 0.13636363636363635
vt 0.53125 0.13636363636363635
vt 0.75 0
vt 0.75 0.13636363636363635
vt 0.96875 0.13636363636363635
vt 0.96875 0
vt 0.96875 0
vt 0.96875 0.13636363636363635
vt 0.53125 0.13636363636363635
vt 0.53125 0
vt 0 1
vt 0 1
vt 0 1
vt 0 1
vt 0.25 0.6363636363636364
vt 0.25 0.31818181818181823
vt 0.03125 0.31818181818181823
vt 0.03125 0.6363636363636364
vt 0.75 0.13636363636363635
vt 0.53125 0.13636363636363635
vt 0.53125 0.18181818181818177
vt 0.75 0.18181818181818177
vt 0.25 0
vt 0.46875 0
vt 0.46875 0.045454545454545414
vt 0.25 0.045454545454545414
vt 0.75 0.13636363636363635
vt 0.75 0.18181818181818177
vt 0.96875 0.18181818181818177
vt 0.96875 0.13636363636363635
vt 0.25 0
vt 0.25 0.045454545454545414
vt 0.03125 0.045454545454545414
vt 0.03125 0
vt 0 1
vt 0 1
vt 0 1
vt 0 1
vt 0.25 0.6363636363636364
vt 0.25 0.31818181818181823
vt 0.03125 0.31818181818181823
vt 0.03125 0.6363636363636364
vn -1 0 0
vn -1 0 0
vn 0 0 1
vn 0 0 1
vn 0 -1 0
vn 0 -1 0
vn -1 0 0
vn -1 0 0
vn 0 0 1
vn 0 0 1
vn 0 -1 0
vn 0 -1 0
vn -1 0 0
vn -1 0 0
vn 0 0 1
vn 0 0 1
vn 0 -1 0
vn 0 -1 0
vn -1 0 0
vn -1 0 0
vn 0 0 1
vn 0 0 1
vn 0 -1 0
vn 0 -1 0
vn -1 0 0
vn -1 0 0
vn 0 0 1
vn 0 0 1
vn 0 -1 0
vn 0 -1 0
vn -1 0 0
vn -1 0 0
vn 0 0 1
vn 0 0 1
vn 0 -1 0
vn 0 -1 0
vn -1 0 0
vn -1 0 0
vn 0 0 1
vn 0 0 1
vn 0 -1 0
vn 0 -1 0
vn -1 0 0
vn -1 0 0
vn 0 0 1
vn 0 0 1
vn 0 -1 0
vn 0 -1 0
usemtl m_0
f 1/1/1 2/2/1 3/3/1 4/4/1
f 5/5/2 6/6/2 7/7/2 8/8/2
f 1/9/3 4/10/3 8/11/3 5/12/3
f 2/13/4 3/14/4 7/15/4 6/16/4
usemtl none
f 1/17/5 2/18/5 6/19/5 5/20/5
usemtl m_0
f 4/21/6 3/22/6 7/23/6 8/24/6
f 9/25/7 10/26/7 11/27/7 12/28/7
f 13/29/8 14/30/8 15/31/8 16/32/8
f 9/33/9 12/34/9 16/35/9 13/36/9
f 10/37/10 11/38/10 15/39/10 14/40/10
f 9/41/11 10/42/11 14/43/11 13/44/11
f 12/45/12 11/46/12 15/47/12 16/48/12
usemtl none
f 17/49/13 18/50/13 19/51/13 20/52/13
usemtl m_0
f 21/53/14 22/54/14 23/55/14 24/56/14
f 17/57/15 20/58/15 24/59/15 21/60/15
f 18/61/16 19/62/16 23/63/16 22/64/16
usemtl none
f 17/65/17 18/66/17 22/67/17 21/68/17
usemtl m_0
f 20/69/18 19/70/18 23/71/18 24/72/18
f 25/73/19 26/74/19 27/75/19 28/76/19
f 29/77/20 30/78/20 31/79/20 32/80/20
usemtl none
f 25/81/21 28/82/21 32/83/21 29/84/21
usemtl m_0
f 26/85/22 27/86/22 31/87/22 30/88/22
usemtl none
f 25/89/23 26/90/23 30/91/23 29/92/23
usemtl m_0
f 28/93/24 27/94/24 31/95/24 32/96/24
f 33/97/25 34/98/25 35/99/25 36/100/25
usemtl none
f 37/101/26 38/102/26 39/103/26 40/104/26
usemtl m_0
f 33/105/27 36/106/27 40/107/27 37/108/27
f 34/109/28 35/110/28 39/111/28 38/112/28
usemtl none
f 33/113/29 34/114/29 38/115/29 37/116/29
usemtl m_0
f 36/117/30 35/118/30 39/119/30 40/120/30
f 41/121/31 42/122/31 43/123/31 44/124/31
f 45/125/32 46/126/32 47/127/32 48/128/32
f 41/129/33 44/130/33 48/131/33 45/132/33
usemtl none
f 42/133/34 43/134/34 47/135/34 46/136/34
f 41/137/35 42/138/35 46/139/35 45/140/35
usemtl m_0
f 44/141/36 43/142/36 47/143/36 48/144/36
f 49/145/37 50/146/37 51/147/37 52/148/37
f 53/149/38 54/150/38 55/151/38 56/152/38
f 49/153/39 52/154/39 56/155/39 53/156/39
f 50/157/40 51/158/40 55/159/40 54/160/40
usemtl none
f 49/161/41 50/162/41 54/163/41 53/164/41
usemtl m_0
f 52/165/42 51/166/42 55/167/42 56/168/42
f 57/169/43 58/170/43 59/171/43 60/172/43
f 61/173/44 62/174/44 63/175/44 64/176/44
f 57/177/45 60/178/45 64/179/45 61/180/45
f 58/181/46 59/182/46 63/183/46 62/184/46
usemtl none
f 57/185/47 58/186/47 62/187/47 61/188/47
usemtl m_0
f 60/189/48 59/190/48 63/191/48 64/192/48